BenchTwelve Medium-black.ufo
<glyph name="parenleft" format="1">
  <advance width="1003"/>
  <unicode hex="0028"/>
  <outline>
    <contour>
      <point x="800" y="-143" type="curve" smooth="yes"/>
      <point x="839" y="-147"/>
      <point x="877" y="-111"/>
      <point x="877" y="-73" type="curve" smooth="yes"/>
      <point x="877" y="15" type="line" smooth="yes"/>
      <point x="877" y="84"/>
      <point x="859" y="101"/>
      <point x="798" y="132" type="curve" smooth="yes"/>
      <point x="659" y="205"/>
      <point x="590" y="432"/>
      <point x="590" y="698" type="curve" smooth="yes"/>
      <point x="590" y="964"/>
      <point x="664" y="1198"/>
      <point x="798" y="1266" type="curve" smooth="yes"/>
      <point x="860" y="1298"/>
      <point x="877" y="1315"/>
      <point x="877" y="1384" type="curve" smooth="yes"/>
      <point x="877" y="1470" type="line" smooth="yes"/>
      <point x="877" y="1508"/>
      <point x="839" y="1544"/>
      <point x="800" y="1540" type="curve" smooth="yes"/>
      <point x="358" y="1490"/>
      <point x="139" y="1098"/>
      <point x="139" y="698" type="curve" smooth="yes"/>
      <point x="139" y="297"/>
      <point x="355" y="-93"/>
    </contour>
  </outline>
</glyph>
<glyph name="slash" format="1">
  <advance width="1400"/>
  <unicode hex="002F"/>
  <outline>
    <contour>
      <point x="517" y="-219" type="curve"/>
      <point x="536" y="-219"/>
      <point x="588" y="-209"/>
      <point x="594" y="-194" type="curve"/>
      <point x="609" y="-194"/>
      <point x="1093" y="1061"/>
      <point x="1097" y="1072" type="curve" smooth="yes"/>
      <point x="1101" y="1084"/>
      <point x="1294" y="1619"/>
      <point x="1281" y="1619" type="curve" smooth="yes"/>
      <point x="1289" y="1637"/>
      <point x="910" y="1647"/>
      <point x="895" y="1647" type="curve" smooth="yes"/>
      <point x="876" y="1647"/>
      <point x="815" y="1637"/>
      <point x="809" y="1623" type="curve" smooth="yes"/>
      <point x="805" y="1623"/>
      <point x="318" y="373"/>
      <point x="314" y="364" type="curve" smooth="yes"/>
      <point x="310" y="352"/>
      <point x="111" y="-200"/>
      <point x="124" y="-200" type="curve" smooth="yes"/>
      <point x="118" y="-214"/>
      <point x="503" y="-218"/>
    </contour>
  </outline>
</glyph>
<glyph name="equal" format="1">
  <advance width="1148"/>
  <unicode hex="003D"/>
  <outline>
    <contour>
      <point x="218" y="228" type="curve" smooth="yes"/>
      <point x="930" y="228" type="line" smooth="yes"/>
      <point x="973" y="228"/>
      <point x="1004" y="259"/>
      <point x="1004" y="302" type="curve" smooth="yes"/>
      <point x="1004" y="394" type="line" smooth="yes"/>
      <point x="1004" y="437"/>
      <point x="973" y="468"/>
      <point x="930" y="468" type="curve" smooth="yes"/>
      <point x="218" y="468" type="line" smooth="yes"/>
      <point x="175" y="468"/>
      <point x="144" y="437"/>
      <point x="144" y="394" type="curve" smooth="yes"/>
      <point x="144" y="302" type="line" smooth="yes"/>
      <point x="144" y="259"/>
      <point x="175" y="228"/>
    </contour>
    <contour>
      <point x="218" y="621" type="curve" smooth="yes"/>
      <point x="930" y="621" type="line" smooth="yes"/>
      <point x="973" y="621"/>
      <point x="1004" y="652"/>
      <point x="1004" y="695" type="curve" smooth="yes"/>
      <point x="1004" y="788" type="line" smooth="yes"/>
      <point x="1004" y="831"/>
      <point x="973" y="862"/>
      <point x="930" y="862" type="curve" smooth="yes"/>
      <point x="218" y="862" type="line" smooth="yes"/>
      <point x="175" y="862"/>
      <point x="144" y="831"/>
      <point x="144" y="788" type="curve" smooth="yes"/>
      <point x="144" y="695" type="line" smooth="yes"/>
      <point x="144" y="652"/>
      <point x="175" y="621"/>
    </contour>
  </outline>
</glyph>
<glyph name="question" format="1">
  <advance width="1879"/>
  <unicode hex="003F"/>
  <outline>
    <contour>
      <point x="689" y="451" type="curve"/>
      <point x="753" y="491"/>
      <point x="774" y="550"/>
      <point x="964" y="564" type="curve" smooth="yes"/>
      <point x="1344" y="591"/>
      <point x="1746" y="599"/>
      <point x="1746" y="999" type="curve" smooth="yes"/>
      <point x="1746" y="1350"/>
      <point x="1349" y="1475"/>
      <point x="811" y="1475" type="curve" smooth="yes"/>
      <point x="550" y="1475"/>
      <point x="264" y="1383"/>
      <point x="150" y="1342" type="curve" smooth="yes"/>
      <point x="112" y="1328"/>
      <point x="92" y="1285"/>
      <point x="109" y="1250" type="curve"/>
      <point x="184" y="1079" type="line"/>
      <point x="202" y="1039"/>
      <point x="243" y="1019"/>
      <point x="286" y="1033" type="curve" smooth="yes"/>
      <point x="483" y="1095"/>
      <point x="689" y="1141"/>
      <point x="940" y="1141" type="curve" smooth="yes"/>
      <point x="1157" y="1141"/>
      <point x="1228" y="1077"/>
      <point x="1237" y="1016" type="curve" smooth="yes"/>
      <point x="1262" y="890"/>
      <point x="1167" y="839"/>
      <point x="1006" y="828" type="curve" smooth="yes"/>
      <point x="770" y="812"/>
      <point x="685" y="771"/>
      <point x="573" y="679" type="curve" smooth="yes"/>
      <point x="555" y="667"/>
      <point x="522" y="645"/>
      <point x="550" y="585" type="curve"/>
      <point x="561" y="568"/>
      <point x="599" y="512"/>
      <point x="616" y="489" type="curve"/>
      <point x="639" y="446"/>
      <point x="672" y="439"/>
    </contour>
    <contour>
      <point x="627" y="0" type="curve" smooth="yes"/>
      <point x="846" y="0" type="line" smooth="yes"/>
      <point x="889" y="0"/>
      <point x="920" y="31"/>
      <point x="920" y="74" type="curve" smooth="yes"/>
      <point x="920" y="260" type="line" smooth="yes"/>
      <point x="920" y="303"/>
      <point x="889" y="334"/>
      <point x="846" y="334" type="curve" smooth="yes"/>
      <point x="627" y="334" type="line" smooth="yes"/>
      <point x="584" y="334"/>
      <point x="553" y="303"/>
      <point x="553" y="260" type="curve" smooth="yes"/>
      <point x="553" y="74" type="line" smooth="yes"/>
      <point x="553" y="31"/>
      <point x="584" y="0"/>
    </contour>
  </outline>
</glyph>
<glyph name="J" format="1">
  <advance width="1401"/>
  <unicode hex="004A"/>
  <outline>
    <contour>
      <point x="146" y="-174" type="curve" smooth="yes"/>
      <point x="655" y="-169"/>
      <point x="1243" y="-54"/>
      <point x="1243" y="578" type="curve" smooth="yes"/>
      <point x="1243" y="1397" type="line" smooth="yes"/>
      <point x="1243" y="1420"/>
      <point x="1225" y="1438"/>
      <point x="1201" y="1438" type="curve" smooth="yes"/>
      <point x="568" y="1438" type="line" smooth="yes"/>
      <point x="545" y="1438"/>
      <point x="527" y="1420"/>
      <point x="527" y="1397" type="curve" smooth="yes"/>
      <point x="527" y="578" type="line" smooth="yes"/>
      <point x="527" y="277"/>
      <point x="376" y="199"/>
      <point x="146" y="191" type="curve" smooth="yes"/>
      <point x="126" y="190"/>
      <point x="110" y="174"/>
      <point x="110" y="150" type="curve" smooth="yes"/>
      <point x="110" y="-135" type="line" smooth="yes"/>
      <point x="110" y="-157"/>
      <point x="127" y="-174"/>
    </contour>
    <contour>
      <point x="723" y="1438" type="move" name="top"/>
    </contour>
  </outline>
</glyph>
<glyph name="S" format="1">
  <advance width="2427"/>
  <unicode hex="0053"/>
  <outline>
    <contour>
      <point x="1182" y="-41" type="curve" smooth="yes"/>
      <point x="2002" y="-41"/>
      <point x="2293" y="101"/>
      <point x="2293" y="456" type="curve" smooth="yes"/>
      <point x="2293" y="851"/>
      <point x="1819" y="899"/>
      <point x="1370" y="926" type="curve" smooth="yes"/>
      <point x="961" y="950"/>
      <point x="858" y="962"/>
      <point x="858" y="1041" type="curve" smooth="yes"/>
      <point x="858" y="1113"/>
      <point x="1006" y="1124"/>
      <point x="1188" y="1124" type="curve" smooth="yes"/>
      <point x="1366" y="1124"/>
      <point x="1686" y="1100"/>
      <point x="1949" y="1016" type="curve" smooth="yes"/>
      <point x="1995" y="1004"/>
      <point x="2034" y="1028"/>
      <point x="2052" y="1062" type="curve" smooth="yes"/>
      <point x="2052" y="1064"/>
      <point x="2139" y="1238"/>
      <point x="2139" y="1239" type="curve" smooth="yes"/>
      <point x="2154" y="1273"/>
      <point x="2136" y="1317"/>
      <point x="2101" y="1331" type="curve" smooth="yes"/>
      <point x="1845" y="1431"/>
      <point x="1536" y="1475"/>
      <point x="1145" y="1475" type="curve" smooth="yes"/>
      <point x="646" y="1475"/>
      <point x="151" y="1427"/>
      <point x="151" y="989" type="curve" smooth="yes"/>
      <point x="151" y="539"/>
      <point x="772" y="539"/>
      <point x="1347" y="504" type="curve" smooth="yes"/>
      <point x="1478" y="497"/>
      <point x="1556" y="477"/>
      <point x="1556" y="403" type="curve" smooth="yes"/>
      <point x="1556" y="337"/>
      <point x="1464" y="315"/>
      <point x="1307" y="315" type="curve" smooth="yes"/>
      <point x="912" y="315"/>
      <point x="635" y="360"/>
      <point x="350" y="443" type="curve" smooth="yes"/>
      <point x="309" y="454"/>
      <point x="268" y="435"/>
      <point x="250" y="397" type="curve" smooth="yes"/>
      <point x="250" y="397"/>
      <point x="157" y="197"/>
      <point x="157" y="196" type="curve" smooth="yes"/>
      <point x="143" y="161"/>
      <point x="161" y="117"/>
      <point x="197" y="105" type="curve" smooth="yes"/>
      <point x="518" y="-11"/>
      <point x="847" y="-41"/>
    </contour>
    <contour>
      <point x="1213" y="1438" type="move" name="top"/>
    </contour>
    <contour>
      <point x="1213" y="0" type="move" name="bottom"/>
    </contour>
  </outline>
</glyph>
<glyph name="W" format="1">
  <advance width="3328"/>
  <unicode hex="0057"/>
  <outline>
    <contour>
      <point x="776" y="0" type="curve" smooth="yes"/>
      <point x="1263" y="0" type="line" smooth="yes"/>
      <point x="1305" y="3"/>
      <point x="1344" y="30"/>
      <point x="1362" y="70" type="curve" smooth="yes"/>
      <point x="1657" y="723" type="line"/>
      <point x="1936" y="70" type="line" smooth="yes"/>
      <point x="1954" y="28"/>
      <point x="1995" y="1"/>
      <point x="2040" y="0" type="curve" smooth="yes"/>
      <point x="2556" y="0" type="line" smooth="yes"/>
      <point x="2601" y="1"/>
      <point x="2642" y="28"/>
      <point x="2660" y="70" type="curve" smooth="yes"/>
      <point x="3223" y="1369" type="line" smooth="yes"/>
      <point x="3238" y="1403"/>
      <point x="3216" y="1438"/>
      <point x="3178" y="1438" type="curve" smooth="yes"/>
      <point x="2732" y="1438" type="line" smooth="yes"/>
      <point x="2686" y="1438"/>
      <point x="2644" y="1411"/>
      <point x="2626" y="1369" type="curve" smooth="yes"/>
      <point x="2321" y="656" type="line"/>
      <point x="2008" y="1368" type="line" smooth="yes"/>
      <point x="1991" y="1408"/>
      <point x="1952" y="1436"/>
      <point x="1909" y="1438" type="curve"/>
      <point x="1491" y="1438" type="line" smooth="yes"/>
      <point x="1446" y="1438"/>
      <point x="1403" y="1411"/>
      <point x="1384" y="1369" type="curve" smooth="yes"/>
      <point x="1068" y="666" type="line"/>
      <point x="783" y="1367" type="line" smooth="yes"/>
      <point x="765" y="1410"/>
      <point x="724" y="1438"/>
      <point x="678" y="1438" type="curve" smooth="yes"/>
      <point x="144" y="1438" type="line" smooth="yes"/>
      <point x="106" y="1438"/>
      <point x="84" y="1403"/>
      <point x="99" y="1369" type="curve" smooth="yes"/>
      <point x="670" y="70" type="line" smooth="yes"/>
      <point x="689" y="28"/>
      <point x="731" y="1"/>
    </contour>
    <contour>
      <point x="1664" y="1438" type="move" name="top"/>
    </contour>
  </outline>
</glyph>
<glyph name="Y" format="1">
  <advance width="2233"/>
  <unicode hex="0059"/>
  <outline>
    <contour>
      <point x="856" y="0" type="curve" smooth="yes"/>
      <point x="1387" y="0" type="line" smooth="yes"/>
      <point x="1430" y="0"/>
      <point x="1462" y="33"/>
      <point x="1462" y="76" type="curve" smooth="yes"/>
      <point x="1462" y="476" type="line"/>
      <point x="2142" y="1375" type="line" smooth="yes"/>
      <point x="2149" y="1384"/>
      <point x="2153" y="1393"/>
      <point x="2153" y="1402" type="curve" smooth="yes"/>
      <point x="2153" y="1421"/>
      <point x="2136" y="1438"/>
      <point x="2113" y="1438" type="curve" smooth="yes"/>
      <point x="1645" y="1438" type="line" smooth="yes"/>
      <point x="1598" y="1438"/>
      <point x="1552" y="1413"/>
      <point x="1523" y="1374" type="curve" smooth="yes"/>
      <point x="1167" y="889" type="line"/>
      <point x="800" y="1375" type="line" smooth="yes"/>
      <point x="771" y="1414"/>
      <point x="723" y="1438"/>
      <point x="677" y="1438" type="curve" smooth="yes"/>
      <point x="113" y="1438" type="line" smooth="yes"/>
      <point x="90" y="1438"/>
      <point x="75" y="1421"/>
      <point x="75" y="1403" type="curve" smooth="yes"/>
      <point x="75" y="1395"/>
      <point x="79" y="1385"/>
      <point x="86" y="1376" type="curve" smooth="yes"/>
      <point x="780" y="473" type="line"/>
      <point x="780" y="76" type="line" smooth="yes"/>
      <point x="780" y="33"/>
      <point x="813" y="0"/>
    </contour>
    <contour>
      <point x="1117" y="1438" type="move" name="top"/>
    </contour>
  </outline>
</glyph>
<glyph name="d" format="1">
  <advance width="2038"/>
  <unicode hex="0064"/>
  <outline>
    <contour>
      <point x="872" y="-41" type="curve" smooth="yes"/>
      <point x="1122" y="-41"/>
      <point x="1376" y="41"/>
      <point x="1511" y="201" type="curve" smooth="yes"/>
      <point x="1517" y="207"/>
      <point x="1524" y="211"/>
      <point x="1531" y="212" type="curve" smooth="yes"/>
      <point x="1539" y="211"/>
      <point x="1546" y="206"/>
      <point x="1552" y="198" type="curve" smooth="yes"/>
      <point x="1554" y="192"/>
      <point x="1630" y="71"/>
      <point x="1633" y="65" type="curve" smooth="yes"/>
      <point x="1657" y="26"/>
      <point x="1700" y="0"/>
      <point x="1744" y="0" type="curve" smooth="yes"/>
      <point x="1805" y="0" type="line" smooth="yes"/>
      <point x="1848" y="0"/>
      <point x="1878" y="33"/>
      <point x="1878" y="76" type="curve" smooth="yes"/>
      <point x="1878" y="1360" type="line" smooth="yes"/>
      <point x="1878" y="1403"/>
      <point x="1846" y="1436"/>
      <point x="1803" y="1436" type="curve" smooth="yes"/>
      <point x="1408" y="1436" type="line" smooth="yes"/>
      <point x="1365" y="1436"/>
      <point x="1332" y="1403"/>
      <point x="1332" y="1360" type="curve" smooth="yes"/>
      <point x="1332" y="930" type="line" smooth="yes"/>
      <point x="1332" y="920"/>
      <point x="1325" y="911"/>
      <point x="1317" y="911" type="curve" smooth="yes"/>
      <point x="1314" y="912"/>
      <point x="1310" y="913"/>
      <point x="1306" y="916" type="curve" smooth="yes"/>
      <point x="1194" y="1005"/>
      <point x="1021" y="1053"/>
      <point x="839" y="1053" type="curve" smooth="yes"/>
      <point x="498" y="1053"/>
      <point x="132" y="889"/>
      <point x="132" y="499" type="curve" smooth="yes"/>
      <point x="132" y="129"/>
      <point x="507" y="-41"/>
    </contour>
    <contour>
      <point x="1014" y="231" type="curve" smooth="yes"/>
      <point x="816" y="231"/>
      <point x="704" y="362"/>
      <point x="704" y="513" type="curve" smooth="yes"/>
      <point x="704" y="667"/>
      <point x="818" y="794"/>
      <point x="1013" y="794" type="curve" smooth="yes"/>
      <point x="1216" y="794"/>
      <point x="1332" y="665"/>
      <point x="1332" y="513" type="curve" smooth="yes"/>
      <point x="1332" y="361"/>
      <point x="1218" y="231"/>
    </contour>
    <contour>
      <point x="1020" y="503" type="move" name="center"/>
    </contour>
  </outline>
</glyph>
<glyph name="e" format="1">
  <advance width="1900"/>
  <unicode hex="0065"/>
  <outline>
    <contour>
      <point x="1041" y="-41" type="curve" smooth="yes"/>
      <point x="1181" y="-41"/>
      <point x="1493" y="1"/>
      <point x="1644" y="50" type="curve"/>
      <point x="1684" y="63"/>
      <point x="1702" y="105"/>
      <point x="1689" y="141" type="curve" smooth="yes"/>
      <point x="1676" y="180"/>
      <point x="1671" y="196"/>
      <point x="1659" y="232" type="curve" smooth="yes"/>
      <point x="1646" y="270"/>
      <point x="1609" y="288"/>
      <point x="1567" y="275" type="curve" smooth="yes"/>
      <point x="1462" y="243"/>
      <point x="1310" y="210"/>
      <point x="1150" y="210" type="curve" smooth="yes"/>
      <point x="950" y="210"/>
      <point x="705" y="262"/>
      <point x="705" y="419" type="curve" smooth="yes"/>
      <point x="705" y="434"/>
      <point x="714" y="449"/>
      <point x="729" y="449" type="curve" smooth="yes"/>
      <point x="1714" y="449" type="line" smooth="yes"/>
      <point x="1747" y="449"/>
      <point x="1764" y="469"/>
      <point x="1766" y="490" type="curve" smooth="yes"/>
      <point x="1766" y="500"/>
      <point x="1767" y="521"/>
      <point x="1767" y="533" type="curve" smooth="yes"/>
      <point x="1760" y="918"/>
      <point x="1351" y="1053"/>
      <point x="985" y="1053" type="curve" smooth="yes"/>
      <point x="599" y="1053"/>
      <point x="132" y="954"/>
      <point x="132" y="504" type="curve" smooth="yes"/>
      <point x="132" y="44"/>
      <point x="650" y="-41"/>
    </contour>
    <contour>
      <point x="718" y="615" type="line"/>
      <point x="706" y="615"/>
      <point x="707" y="631"/>
      <point x="707" y="644" type="curve" smooth="yes"/>
      <point x="717" y="753"/>
      <point x="843" y="835"/>
      <point x="994" y="835" type="curve" smooth="yes"/>
      <point x="1161" y="835"/>
      <point x="1257" y="747"/>
      <point x="1272" y="639" type="curve"/>
      <point x="1272" y="628"/>
      <point x="1273" y="615"/>
      <point x="1261" y="615" type="curve" smooth="yes"/>
    </contour>
    <contour>
      <point x="950" y="1006" type="move" name="top"/>
    </contour>
    <contour>
      <point x="1711" y="10" type="move" name="ogonek"/>
    </contour>
    <contour>
      <point x="950" y="0" type="move" name="bottom"/>
    </contour>
  </outline>
</glyph>
<glyph name="h" format="1">
  <advance width="2022"/>
  <unicode hex="0068"/>
  <outline>
    <contour>
      <point x="235" y="0" type="curve" smooth="yes"/>
      <point x="633" y="0" type="line" smooth="yes"/>
      <point x="676" y="0"/>
      <point x="709" y="33"/>
      <point x="709" y="76" type="curve" smooth="yes"/>
      <point x="709" y="513" type="line" smooth="yes"/>
      <point x="709" y="646"/>
      <point x="829" y="781"/>
      <point x="1026" y="781" type="curve" smooth="yes"/>
      <point x="1212" y="781"/>
      <point x="1316" y="658"/>
      <point x="1316" y="513" type="curve" smooth="yes"/>
      <point x="1316" y="76" type="line" smooth="yes"/>
      <point x="1316" y="33"/>
      <point x="1348" y="0"/>
      <point x="1391" y="0" type="curve" smooth="yes"/>
      <point x="1804" y="0" type="line" smooth="yes"/>
      <point x="1847" y="0"/>
      <point x="1879" y="33"/>
      <point x="1879" y="76" type="curve" smooth="yes"/>
      <point x="1879" y="518" type="line" smooth="yes"/>
      <point x="1879" y="868"/>
      <point x="1561" y="1053"/>
      <point x="1213" y="1053" type="curve" smooth="yes"/>
      <point x="1040" y="1053"/>
      <point x="868" y="1006"/>
      <point x="736" y="909" type="curve" smooth="yes"/>
      <point x="724" y="901"/>
      <point x="709" y="908"/>
      <point x="709" y="923" type="curve" smooth="yes"/>
      <point x="709" y="1362" type="line" smooth="yes"/>
      <point x="709" y="1405"/>
      <point x="676" y="1438"/>
      <point x="633" y="1438" type="curve" smooth="yes"/>
      <point x="235" y="1438" type="line" smooth="yes"/>
      <point x="192" y="1438"/>
      <point x="159" y="1405"/>
      <point x="159" y="1362" type="curve" smooth="yes"/>
      <point x="159" y="76" type="line" smooth="yes"/>
      <point x="159" y="33"/>
      <point x="192" y="0"/>
    </contour>
    <contour>
      <point x="1011" y="1006" type="move" name="top"/>
    </contour>
    <contour>
      <point x="1011" y="503" type="move" name="center"/>
    </contour>
  </outline>
</glyph>
<glyph name="j" format="1">
  <advance width="1180"/>
  <unicode hex="006A"/>
  <outline>
    <contour>
      <point x="466" y="-441" type="curve"/>
      <point x="760" y="-419"/>
      <point x="1019" y="-305"/>
      <point x="1020" y="11" type="curve" smooth="yes"/>
      <point x="1020" y="931" type="line" smooth="yes"/>
      <point x="1020" y="974"/>
      <point x="987" y="1006"/>
      <point x="944" y="1006" type="curve" smooth="yes"/>
      <point x="545" y="1006" type="line" smooth="yes"/>
      <point x="502" y="1006"/>
      <point x="469" y="974"/>
      <point x="469" y="931" type="curve" smooth="yes"/>
      <point x="469" y="14" type="line" smooth="yes"/>
      <point x="469" y="-110"/>
      <point x="368" y="-146"/>
      <point x="250" y="-146" type="curve" smooth="yes"/>
      <point x="215" y="-146"/>
      <point x="163" y="-143"/>
      <point x="133" y="-140" type="curve" smooth="yes"/>
      <point x="92" y="-135"/>
      <point x="60" y="-165"/>
      <point x="60" y="-206" type="curve" smooth="yes"/>
      <point x="60" y="-344" type="line" smooth="yes"/>
      <point x="60" y="-388"/>
      <point x="91" y="-424"/>
      <point x="134" y="-429" type="curve" smooth="yes"/>
      <point x="226" y="-441"/>
      <point x="355" y="-452"/>
    </contour>
    <contour>
      <point x="543" y="1156" type="curve" smooth="yes"/>
      <point x="941" y="1156" type="line" smooth="yes"/>
      <point x="984" y="1156"/>
      <point x="1017" y="1189"/>
      <point x="1017" y="1232" type="curve" smooth="yes"/>
      <point x="1017" y="1441" type="line" smooth="yes"/>
      <point x="1017" y="1484"/>
      <point x="984" y="1516"/>
      <point x="941" y="1516" type="curve" smooth="yes"/>
      <point x="543" y="1516" type="line" smooth="yes"/>
      <point x="500" y="1516"/>
      <point x="468" y="1484"/>
      <point x="468" y="1441" type="curve" smooth="yes"/>
      <point x="468" y="1232" type="line" smooth="yes"/>
      <point x="468" y="1189"/>
      <point x="500" y="1156"/>
    </contour>
  </outline>
</glyph>
<glyph name="w" format="1">
  <advance width="2682"/>
  <unicode hex="0077"/>
  <outline>
    <contour>
      <point x="570" y="0" type="curve" smooth="yes"/>
      <point x="1082" y="0" type="line" smooth="yes"/>
      <point x="1126" y="0"/>
      <point x="1168" y="30"/>
      <point x="1181" y="73" type="curve" smooth="yes"/>
      <point x="1318" y="480" type="line" smooth="yes"/>
      <point x="1319" y="485"/>
      <point x="1324" y="488"/>
      <point x="1328" y="488" type="curve" smooth="yes"/>
      <point x="1332" y="488"/>
      <point x="1336" y="485"/>
      <point x="1338" y="480" type="curve" smooth="yes"/>
      <point x="1473" y="73" type="line" smooth="yes"/>
      <point x="1486" y="30"/>
      <point x="1526" y="0"/>
      <point x="1570" y="0" type="curve" smooth="yes"/>
      <point x="2082" y="0" type="line" smooth="yes"/>
      <point x="2127" y="0"/>
      <point x="2170" y="28"/>
      <point x="2188" y="70" type="curve" smooth="yes"/>
      <point x="2551" y="936" type="line" smooth="yes"/>
      <point x="2555" y="944"/>
      <point x="2557" y="952"/>
      <point x="2557" y="959" type="curve" smooth="yes"/>
      <point x="2557" y="984"/>
      <point x="2536" y="1006"/>
      <point x="2507" y="1006" type="curve" smooth="yes"/>
      <point x="2131" y="1006" type="line" smooth="yes"/>
      <point x="2086" y="1006"/>
      <point x="2048" y="977"/>
      <point x="2035" y="933" type="curve" smooth="yes"/>
      <point x="1876" y="396" type="line" smooth="yes"/>
      <point x="1875" y="391"/>
      <point x="1869" y="388"/>
      <point x="1865" y="388" type="curve" smooth="yes"/>
      <point x="1861" y="388"/>
      <point x="1856" y="390"/>
      <point x="1855" y="395" type="curve" smooth="yes"/>
      <point x="1668" y="934" type="line" smooth="yes"/>
      <point x="1654" y="977"/>
      <point x="1616" y="1006"/>
      <point x="1573" y="1006" type="curve" smooth="yes"/>
      <point x="1158" y="1006" type="line" smooth="yes"/>
      <point x="1113" y="1006"/>
      <point x="1074" y="978"/>
      <point x="1060" y="934" type="curve" smooth="yes"/>
      <point x="877" y="395" type="line" smooth="yes"/>
      <point x="876" y="391"/>
      <point x="871" y="387"/>
      <point x="867" y="387" type="curve" smooth="yes"/>
      <point x="863" y="387"/>
      <point x="859" y="390"/>
      <point x="857" y="396" type="curve" smooth="yes"/>
      <point x="702" y="932" type="line" smooth="yes"/>
      <point x="691" y="976"/>
      <point x="655" y="1006"/>
      <point x="610" y="1006" type="curve" smooth="yes"/>
      <point x="172" y="1006" type="line" smooth="yes"/>
      <point x="142" y="1006"/>
      <point x="121" y="983"/>
      <point x="121" y="957" type="curve" smooth="yes"/>
      <point x="121" y="950"/>
      <point x="122" y="942"/>
      <point x="125" y="935" type="curve" smooth="yes"/>
      <point x="468" y="71" type="line" smooth="yes"/>
      <point x="485" y="29"/>
      <point x="525" y="0"/>
    </contour>
    <contour>
      <point x="1342" y="1006" type="move" name="top"/>
    </contour>
  </outline>
</glyph>
<glyph name="section" format="1">
  <advance width="1860"/>
  <unicode hex="00A7"/>
  <outline>
    <contour>
      <point x="907" y="-41" type="curve" smooth="yes"/>
      <point x="1358" y="-41"/>
      <point x="1712" y="31"/>
      <point x="1712" y="307" type="curve" smooth="yes"/>
      <point x="1712" y="407"/>
      <point x="1676" y="477"/>
      <point x="1615" y="526" type="curve"/>
      <point x="1675" y="577"/>
      <point x="1712" y="644"/>
      <point x="1712" y="729" type="curve" smooth="yes"/>
      <point x="1712" y="1052"/>
      <point x="1325" y="1064"/>
      <point x="1006" y="1084" type="curve" smooth="yes"/>
      <point x="741" y="1100"/>
      <point x="616" y="1099"/>
      <point x="616" y="1155" type="curve" smooth="yes"/>
      <point x="616" y="1197"/>
      <point x="680" y="1225"/>
      <point x="925" y="1225" type="curve" smooth="yes"/>
      <point x="1163" y="1225"/>
      <point x="1305" y="1204"/>
      <point x="1439" y="1158" type="curve" smooth="yes"/>
      <point x="1482" y="1144"/>
      <point x="1527" y="1160"/>
      <point x="1546" y="1198" type="curve"/>
      <point x="1591" y="1292" type="line"/>
      <point x="1608" y="1326"/>
      <point x="1591" y="1372"/>
      <point x="1555" y="1386" type="curve" smooth="yes"/>
      <point x="1342" y="1469"/>
      <point x="1128" y="1475"/>
      <point x="888" y="1475" type="curve" smooth="yes"/>
      <point x="640" y="1475"/>
      <point x="155" y="1443"/>
      <point x="155" y="1126" type="curve" smooth="yes"/>
      <point x="155" y="1035"/>
      <point x="203" y="971"/>
      <point x="279" y="926" type="curve"/>
      <point x="205" y="874"/>
      <point x="155" y="801"/>
      <point x="155" y="704" type="curve" smooth="yes"/>
      <point x="155" y="432"/>
      <point x="580" y="408"/>
      <point x="890" y="387" type="curve" smooth="yes"/>
      <point x="1175" y="368"/>
      <point x="1224" y="362"/>
      <point x="1224" y="294" type="curve" smooth="yes"/>
      <point x="1224" y="239"/>
      <point x="1159" y="218"/>
      <point x="1000" y="218" type="curve" smooth="yes"/>
      <point x="754" y="218"/>
      <point x="538" y="240"/>
      <point x="323" y="306" type="curve" smooth="yes"/>
      <point x="281" y="320"/>
      <point x="238" y="300"/>
      <point x="218" y="259" type="curve" smooth="yes"/>
      <point x="166" y="154" type="line" smooth="yes"/>
      <point x="150" y="120"/>
      <point x="169" y="72"/>
      <point x="204" y="59" type="curve" smooth="yes"/>
      <point x="404" y="-18"/>
      <point x="704" y="-41"/>
    </contour>
    <contour>
      <point x="1302" y="639" type="curve"/>
      <point x="1212" y="651"/>
      <point x="1099" y="654"/>
      <point x="1006" y="662" type="curve" smooth="yes"/>
      <point x="625" y="692"/>
      <point x="557" y="707"/>
      <point x="557" y="760" type="curve" smooth="yes"/>
      <point x="557" y="806"/>
      <point x="586" y="837"/>
      <point x="592" y="844" type="curve"/>
      <point x="669" y="827"/>
      <point x="795" y="815"/>
      <point x="890" y="809" type="curve" smooth="yes"/>
      <point x="1175" y="790"/>
      <point x="1335" y="784"/>
      <point x="1335" y="716" type="curve" smooth="yes"/>
      <point x="1335" y="677"/>
      <point x="1302" y="639"/>
    </contour>
  </outline>
</glyph>
<glyph name="Eth" format="1">
  <advance width="2421"/>
  <unicode hex="00D0"/>
  <outline>
    <contour>
      <point x="864" y="346" type="curve" smooth="yes"/>
      <point x="847" y="346"/>
      <point x="828" y="364"/>
      <point x="828" y="381" type="curve" smooth="yes"/>
      <point x="828" y="631" type="line"/>
      <point x="1015" y="631" type="line"/>
      <point x="1056" y="631"/>
      <point x="1074" y="661"/>
      <point x="1075" y="701" type="curve"/>
      <point x="1075" y="757" type="line"/>
      <point x="1075" y="800"/>
      <point x="1058" y="832"/>
      <point x="1015" y="832" type="curve" smooth="yes"/>
      <point x="828" y="832" type="line"/>
      <point x="828" y="1063" type="line" smooth="yes"/>
      <point x="828" y="1080"/>
      <point x="846" y="1097"/>
      <point x="863" y="1097" type="curve" smooth="yes"/>
      <point x="917" y="1098"/>
      <point x="1125" y="1099"/>
      <point x="1178" y="1099" type="curve" smooth="yes"/>
      <point x="1406" y="1099"/>
      <point x="1621" y="1047"/>
      <point x="1621" y="728" type="curve" smooth="yes"/>
      <point x="1621" y="384"/>
      <point x="1435" y="346"/>
      <point x="1151" y="346" type="curve" smooth="yes"/>
      <point x="1096" y="346"/>
      <point x="928" y="345"/>
    </contour>
    <contour>
      <point x="235" y="0" type="curve" smooth="yes"/>
      <point x="1218" y="0" type="line" smooth="yes"/>
      <point x="1796" y="0"/>
      <point x="2282" y="31"/>
      <point x="2282" y="731" type="curve" smooth="yes"/>
      <point x="2282" y="1267"/>
      <point x="1832" y="1438"/>
      <point x="1321" y="1438" type="curve" smooth="yes"/>
      <point x="235" y="1438" type="line" smooth="yes"/>
      <point x="192" y="1438"/>
      <point x="159" y="1404"/>
      <point x="159" y="1361" type="curve" smooth="yes"/>
      <point x="159" y="832" type="line"/>
      <point x="60" y="832" type="line" smooth="yes"/>
      <point x="17" y="832"/>
      <point x="0" y="800"/>
      <point x="0" y="757" type="curve" smooth="yes"/>
      <point x="0" y="707" type="line" smooth="yes"/>
      <point x="0" y="664"/>
      <point x="17" y="631"/>
      <point x="60" y="631" type="curve" smooth="yes"/>
      <point x="159" y="631" type="line"/>
      <point x="159" y="76" type="line" smooth="yes"/>
      <point x="159" y="33"/>
      <point x="192" y="0"/>
    </contour>
  </outline>
</glyph>
<glyph name="Oslash" format="1">
  <advance width="2667"/>
  <unicode hex="00D8"/>
  <outline>
    <contour>
      <point x="1022" y="-202" type="line"/>
      <point x="1040" y="-202"/>
      <point x="1059" y="-189"/>
      <point x="1067" y="-169" type="curve" smooth="yes"/>
      <point x="1124" y="-34" type="line"/>
      <point x="1195" y="-39"/>
      <point x="1265" y="-41"/>
      <point x="1333" y="-41" type="curve" smooth="yes"/>
      <point x="1853" y="-41"/>
      <point x="2532" y="77"/>
      <point x="2532" y="722" type="curve" smooth="yes"/>
      <point x="2532" y="1171"/>
      <point x="2146" y="1370"/>
      <point x="1735" y="1441" type="curve"/>
      <point x="1801" y="1602" type="line" smooth="yes"/>
      <point x="1807" y="1617"/>
      <point x="1798" y="1635"/>
      <point x="1784" y="1635" type="curve" smooth="yes"/>
      <point x="1642" y="1635" type="line" smooth="yes"/>
      <point x="1623" y="1635"/>
      <point x="1606" y="1622"/>
      <point x="1598" y="1602" type="curve" smooth="yes"/>
      <point x="1542" y="1466" type="line"/>
      <point x="1471" y="1473"/>
      <point x="1400" y="1475"/>
      <point x="1333" y="1475" type="curve" smooth="yes"/>
      <point x="813" y="1475"/>
      <point x="134" y="1319"/>
      <point x="134" y="722" type="curve" smooth="yes"/>
      <point x="134" y="238"/>
      <point x="517" y="51"/>
      <point x="928" y="-13" type="curve"/>
      <point x="863" y="-167" type="line" smooth="yes"/>
      <point x="856" y="-182"/>
      <point x="865" y="-200"/>
      <point x="880" y="-200" type="curve" smooth="yes"/>
    </contour>
    <contour>
      <point x="1085" y="367" type="line"/>
      <point x="969" y="419"/>
      <point x="898" y="524"/>
      <point x="898" y="722" type="curve" smooth="yes"/>
      <point x="898" y="1025"/>
      <point x="1072" y="1118"/>
      <point x="1333" y="1118" type="curve" smooth="yes"/>
      <point x="1355" y="1118"/>
      <point x="1376" y="1118"/>
      <point x="1397" y="1116" type="curve"/>
    </contour>
    <contour>
      <point x="1333" y="322" type="curve" smooth="yes"/>
      <point x="1312" y="322"/>
      <point x="1291" y="322"/>
      <point x="1271" y="323" type="curve"/>
      <point x="1582" y="1073" type="line"/>
      <point x="1698" y="1019"/>
      <point x="1768" y="911"/>
      <point x="1768" y="722" type="curve" smooth="yes"/>
      <point x="1768" y="407"/>
      <point x="1591" y="322"/>
    </contour>
    <contour>
      <point x="1334" y="1438" type="move" name="top"/>
    </contour>
  </outline>
</glyph>
<glyph name="divide" format="1">
  <advance width="1291"/>
  <unicode hex="00F7"/>
  <outline>
    <contour>
      <point x="584" y="1" type="curve" smooth="yes"/>
      <point x="720" y="1" type="line" smooth="yes"/>
      <point x="763" y="1"/>
      <point x="797" y="35"/>
      <point x="797" y="78" type="curve" smooth="yes"/>
      <point x="797" y="222" type="line" smooth="yes"/>
      <point x="797" y="265"/>
      <point x="763" y="299"/>
      <point x="720" y="299" type="curve" smooth="yes"/>
      <point x="584" y="299" type="line" smooth="yes"/>
      <point x="541" y="299"/>
      <point x="507" y="265"/>
      <point x="507" y="222" type="curve" smooth="yes"/>
      <point x="507" y="78" type="line" smooth="yes"/>
      <point x="507" y="35"/>
      <point x="541" y="1"/>
    </contour>
    <contour>
      <point x="194" y="428" type="curve" smooth="yes"/>
      <point x="1098" y="428" type="line" smooth="yes"/>
      <point x="1141" y="428"/>
      <point x="1165" y="452"/>
      <point x="1165" y="495" type="curve" smooth="yes"/>
      <point x="1165" y="512"/>
      <point x="1165" y="393"/>
      <point x="1165" y="587" type="curve" smooth="yes"/>
      <point x="1165" y="630"/>
      <point x="1141" y="654"/>
      <point x="1098" y="654" type="curve" smooth="yes"/>
      <point x="194" y="654" type="line" smooth="yes"/>
      <point x="151" y="654"/>
      <point x="127" y="630"/>
      <point x="127" y="587" type="curve" smooth="yes"/>
      <point x="127" y="495" type="line" smooth="yes"/>
      <point x="127" y="452"/>
      <point x="151" y="428"/>
    </contour>
    <contour>
      <point x="584" y="757" type="curve" smooth="yes"/>
      <point x="720" y="757" type="line" smooth="yes"/>
      <point x="763" y="757"/>
      <point x="797" y="791"/>
      <point x="797" y="834" type="curve" smooth="yes"/>
      <point x="797" y="978" type="line" smooth="yes"/>
      <point x="797" y="1021"/>
      <point x="763" y="1055"/>
      <point x="720" y="1055" type="curve" smooth="yes"/>
      <point x="584" y="1055" type="line" smooth="yes"/>
      <point x="541" y="1055"/>
      <point x="507" y="1021"/>
      <point x="507" y="978" type="curve" smooth="yes"/>
      <point x="507" y="834" type="line" smooth="yes"/>
      <point x="507" y="791"/>
      <point x="541" y="757"/>
    </contour>
  </outline>
</glyph>
<glyph name="Eng" format="1">
  <advance width="2542"/>
  <unicode hex="014A"/>
  <outline>
    <contour>
      <point x="1414" y="-725" type="curve" smooth="yes"/>
      <point x="1908" y="-720"/>
      <point x="2382" y="-605"/>
      <point x="2382" y="27" type="curve" smooth="yes"/>
      <point x="2382" y="1361" type="line" smooth="yes"/>
      <point x="2382" y="1404"/>
      <point x="2350" y="1436"/>
      <point x="2307" y="1436" type="curve" smooth="yes"/>
      <point x="1870" y="1436" type="line" smooth="yes"/>
      <point x="1827" y="1436"/>
      <point x="1794" y="1404"/>
      <point x="1794" y="1361" type="curve" smooth="yes"/>
      <point x="1794" y="787" type="line" smooth="yes"/>
      <point x="1794" y="774"/>
      <point x="1778" y="766"/>
      <point x="1769" y="774" type="curve"/>
      <point x="1054" y="1406" type="line" smooth="yes"/>
      <point x="1022" y="1433"/>
      <point x="975" y="1452"/>
      <point x="931" y="1452" type="curve" smooth="yes"/>
      <point x="235" y="1452" type="line" smooth="yes"/>
      <point x="192" y="1452"/>
      <point x="159" y="1419"/>
      <point x="159" y="1376" type="curve" smooth="yes"/>
      <point x="159" y="76" type="line" smooth="yes"/>
      <point x="159" y="33"/>
      <point x="192" y="0"/>
      <point x="235" y="0" type="curve" smooth="yes"/>
      <point x="681" y="0" type="line" smooth="yes"/>
      <point x="724" y="0"/>
      <point x="757" y="33"/>
      <point x="757" y="76" type="curve" smooth="yes"/>
      <point x="757" y="888" type="line" smooth="yes"/>
      <point x="757" y="901"/>
      <point x="773" y="909"/>
      <point x="783" y="901" type="curve" smooth="yes"/>
      <point x="934" y="770"/>
      <point x="1677" y="137"/>
      <point x="1795" y="28" type="curve"/>
      <point x="1795" y="26"/>
      <point x="1795" y="-5"/>
      <point x="1795" y="-7" type="curve" smooth="yes"/>
      <point x="1791" y="-278"/>
      <point x="1660" y="-353"/>
      <point x="1414" y="-360" type="curve" smooth="yes"/>
      <point x="1394" y="-360"/>
      <point x="1378" y="-377"/>
      <point x="1378" y="-401" type="curve" smooth="yes"/>
      <point x="1378" y="-685" type="line" smooth="yes"/>
      <point x="1378" y="-707"/>
      <point x="1395" y="-725"/>
    </contour>
  </outline>
</glyph>
<glyph name="eng" format="1">
  <advance width="2027"/>
  <unicode hex="014B"/>
  <outline>
    <contour>
      <point x="995" y="-429" type="curve" smooth="yes"/>
      <point x="1087" y="-441"/>
      <point x="1216" y="-452"/>
      <point x="1328" y="-441" type="curve"/>
      <point x="1622" y="-419"/>
      <point x="1880" y="-305"/>
      <point x="1880" y="11" type="curve" smooth="yes"/>
      <point x="1881" y="50"/>
      <point x="1882" y="211"/>
      <point x="1882" y="518" type="curve" smooth="yes"/>
      <point x="1882" y="881"/>
      <point x="1592" y="1053"/>
      <point x="1161" y="1053" type="curve" smooth="yes"/>
      <point x="924" y="1053"/>
      <point x="687" y="973"/>
      <point x="557" y="812" type="curve" smooth="yes"/>
      <point x="551" y="805"/>
      <point x="544" y="801"/>
      <point x="536" y="801" type="curve" smooth="yes"/>
      <point x="528" y="801"/>
      <point x="521" y="806"/>
      <point x="516" y="814" type="curve" smooth="yes"/>
      <point x="438" y="942" type="line" smooth="yes"/>
      <point x="414" y="983"/>
      <point x="371" y="1006"/>
      <point x="324" y="1006" type="curve" smooth="yes"/>
      <point x="227" y="1006" type="line" smooth="yes"/>
      <point x="184" y="1006"/>
      <point x="153" y="972"/>
      <point x="153" y="929" type="curve" smooth="yes"/>
      <point x="153" y="76" type="line" smooth="yes"/>
      <point x="153" y="33"/>
      <point x="186" y="0"/>
      <point x="229" y="0" type="curve" smooth="yes"/>
      <point x="627" y="0" type="line" smooth="yes"/>
      <point x="670" y="0"/>
      <point x="702" y="33"/>
      <point x="702" y="76" type="curve" smooth="yes"/>
      <point x="702" y="513" type="line" smooth="yes"/>
      <point x="702" y="646"/>
      <point x="832" y="781"/>
      <point x="1029" y="781" type="curve" smooth="yes"/>
      <point x="1215" y="781"/>
      <point x="1331" y="658"/>
      <point x="1331" y="513" type="curve" smooth="yes"/>
      <point x="1331" y="14" type="line" smooth="yes"/>
      <point x="1331" y="-110"/>
      <point x="1229" y="-146"/>
      <point x="1111" y="-146" type="curve" smooth="yes"/>
      <point x="1077" y="-146"/>
      <point x="1024" y="-143"/>
      <point x="994" y="-140" type="curve" smooth="yes"/>
      <point x="953" y="-135"/>
      <point x="921" y="-165"/>
      <point x="921" y="-206" type="curve" smooth="yes"/>
      <point x="921" y="-344" type="line" smooth="yes"/>
      <point x="921" y="-388"/>
      <point x="952" y="-424"/>
    </contour>
  </outline>
</glyph>
<glyph name="tbar" format="1">
  <advance width="1633"/>
  <unicode hex="0167"/>
  <outline>
    <contour>
      <point x="1049" y="-41" type="curve" smooth="yes"/>
      <point x="1177" y="-41"/>
      <point x="1299" y="-25"/>
      <point x="1397" y="-2" type="curve" smooth="yes"/>
      <point x="1438" y="8"/>
      <point x="1470" y="46"/>
      <point x="1468" y="88" type="curve" smooth="yes"/>
      <point x="1467" y="232" type="line" smooth="yes"/>
      <point x="1465" y="272"/>
      <point x="1434" y="298"/>
      <point x="1393" y="287" type="curve" smooth="yes"/>
      <point x="1324" y="269"/>
      <point x="1237" y="254"/>
      <point x="1155" y="254" type="curve" smooth="yes"/>
      <point x="1019" y="254"/>
      <point x="906" y="295"/>
      <point x="906" y="433" type="curve" smooth="yes"/>
      <point x="906" y="469" type="line"/>
      <point x="1178" y="469" type="line" smooth="yes"/>
      <point x="1221" y="469"/>
      <point x="1245" y="488"/>
      <point x="1245" y="531" type="curve" smooth="yes"/>
      <point x="1245" y="589" type="line" smooth="yes"/>
      <point x="1245" y="632"/>
      <point x="1221" y="647"/>
      <point x="1178" y="647" type="curve" smooth="yes"/>
      <point x="906" y="647" type="line"/>
      <point x="906" y="762" type="line" smooth="yes"/>
      <point x="906" y="782"/>
      <point x="922" y="797"/>
      <point x="942" y="797" type="curve" smooth="yes"/>
      <point x="1314" y="797" type="line" smooth="yes"/>
      <point x="1357" y="797"/>
      <point x="1389" y="830"/>
      <point x="1389" y="873" type="curve" smooth="yes"/>
      <point x="1389" y="931" type="line" smooth="yes"/>
      <point x="1389" y="974"/>
      <point x="1357" y="1006"/>
      <point x="1314" y="1006" type="curve" smooth="yes"/>
      <point x="942" y="1006" type="line" smooth="yes"/>
      <point x="922" y="1006"/>
      <point x="906" y="1022"/>
      <point x="906" y="1042" type="curve" smooth="yes"/>
      <point x="906" y="1374" type="line" smooth="yes"/>
      <point x="906" y="1417"/>
      <point x="874" y="1450"/>
      <point x="831" y="1450" type="curve" smooth="yes"/>
      <point x="436" y="1450" type="line" smooth="yes"/>
      <point x="393" y="1450"/>
      <point x="362" y="1417"/>
      <point x="361" y="1374" type="curve"/>
      <point x="332" y="1042" type="line"/>
      <point x="332" y="1022"/>
      <point x="317" y="1006"/>
      <point x="297" y="1006" type="curve" smooth="yes"/>
      <point x="171" y="1006" type="line" smooth="yes"/>
      <point x="128" y="1006"/>
      <point x="96" y="974"/>
      <point x="96" y="931" type="curve" smooth="yes"/>
      <point x="96" y="873" type="line" smooth="yes"/>
      <point x="96" y="830"/>
      <point x="128" y="797"/>
      <point x="171" y="797" type="curve" smooth="yes"/>
      <point x="297" y="797" type="line" smooth="yes"/>
      <point x="317" y="797"/>
      <point x="332" y="782"/>
      <point x="332" y="762" type="curve" smooth="yes"/>
      <point x="332" y="647" type="line"/>
      <point x="209" y="647" type="line" smooth="yes"/>
      <point x="166" y="647"/>
      <point x="142" y="632"/>
      <point x="142" y="589" type="curve" smooth="yes"/>
      <point x="142" y="531" type="line" smooth="yes"/>
      <point x="142" y="488"/>
      <point x="166" y="469"/>
      <point x="209" y="469" type="curve" smooth="yes"/>
      <point x="332" y="469" type="line"/>
      <point x="332" y="455" type="line" smooth="yes"/>
      <point x="332" y="63"/>
      <point x="695" y="-41"/>
    </contour>
  </outline>
</glyph>
<glyph name="caron" format="1">
  <advance width="998"/>
  <unicode hex="02C7"/>
  <outline>
    <contour>
      <point x="452" y="1174" type="curve" smooth="yes"/>
      <point x="541" y="1174" type="line" smooth="yes"/>
      <point x="591" y="1174"/>
      <point x="646" y="1203"/>
      <point x="683" y="1250" type="curve" smooth="yes"/>
      <point x="859" y="1469" type="line" smooth="yes"/>
      <point x="867" y="1479"/>
      <point x="870" y="1490"/>
      <point x="870" y="1501" type="curve" smooth="yes"/>
      <point x="870" y="1523"/>
      <point x="857" y="1545"/>
      <point x="838" y="1545" type="curve" smooth="yes"/>
      <point x="785" y="1545" type="line" smooth="yes"/>
      <point x="736" y="1545"/>
      <point x="690" y="1523"/>
      <point x="648" y="1490" type="curve" smooth="yes"/>
      <point x="530" y="1398" type="line" smooth="yes"/>
      <point x="520" y="1390"/>
      <point x="508" y="1387"/>
      <point x="496" y="1387" type="curve" smooth="yes"/>
      <point x="484" y="1387"/>
      <point x="473" y="1390"/>
      <point x="461" y="1398" type="curve"/>
      <point x="344" y="1490" type="line" smooth="yes"/>
      <point x="301" y="1523"/>
      <point x="256" y="1545"/>
      <point x="206" y="1545" type="curve" smooth="yes"/>
      <point x="155" y="1545" type="line" smooth="yes"/>
      <point x="136" y="1545"/>
      <point x="123" y="1523"/>
      <point x="123" y="1501" type="curve" smooth="yes"/>
      <point x="123" y="1490"/>
      <point x="126" y="1479"/>
      <point x="134" y="1469" type="curve" smooth="yes"/>
      <point x="308" y="1250" type="line" smooth="yes"/>
      <point x="345" y="1203"/>
      <point x="401" y="1174"/>
    </contour>
    <contour>
      <point x="497" y="1006" type="move" name="_top"/>
    </contour>
  </outline>
</glyph>
<glyph name="tilde" format="1">
  <advance width="1465"/>
  <unicode hex="02DC"/>
  <outline>
    <contour>
      <point x="470" y="869" type="curve" smooth="yes"/>
      <point x="666" y="869"/>
      <point x="817" y="984"/>
      <point x="1002" y="984" type="curve" smooth="yes"/>
      <point x="1080" y="984"/>
      <point x="1170" y="951"/>
      <point x="1260" y="902" type="curve" smooth="yes"/>
      <point x="1272" y="895"/>
      <point x="1283" y="891"/>
      <point x="1294" y="891" type="curve" smooth="yes"/>
      <point x="1324" y="891"/>
      <point x="1338" y="918"/>
      <point x="1347" y="945" type="curve"/>
      <point x="1347" y="945"/>
      <point x="1380" y="1027"/>
      <point x="1385" y="1039" type="curve" smooth="yes"/>
      <point x="1390" y="1050"/>
      <point x="1393" y="1059"/>
      <point x="1393" y="1068" type="curve" smooth="yes"/>
      <point x="1393" y="1092"/>
      <point x="1377" y="1106"/>
      <point x="1351" y="1119" type="curve" smooth="yes"/>
      <point x="1213" y="1192"/>
      <point x="1094" y="1226"/>
      <point x="984" y="1226" type="curve" smooth="yes"/>
      <point x="777" y="1226"/>
      <point x="638" y="1109"/>
      <point x="469" y="1109" type="curve" smooth="yes"/>
      <point x="392" y="1109"/>
      <point x="309" y="1142"/>
      <point x="211" y="1203" type="curve" smooth="yes"/>
      <point x="198" y="1210"/>
      <point x="186" y="1216"/>
      <point x="173" y="1216" type="curve" smooth="yes"/>
      <point x="153" y="1216"/>
      <point x="139" y="1204"/>
      <point x="127" y="1180" type="curve" smooth="yes"/>
      <point x="72" y="1080" type="line" smooth="yes"/>
      <point x="66" y="1071"/>
      <point x="63" y="1063"/>
      <point x="63" y="1055" type="curve" smooth="yes"/>
      <point x="63" y="1035"/>
      <point x="79" y="1016"/>
      <point x="103" y="1001" type="curve" smooth="yes"/>
      <point x="234" y="912"/>
      <point x="348" y="869"/>
    </contour>
    <contour>
      <point x="728" y="1006" type="move" name="_top"/>
    </contour>
  </outline>
</glyph>
<glyph name="uni0307" format="1">
  <advance width="609"/>
  <unicode hex="0307"/>
  <outline>
    <contour>
      <point x="118" y="872" type="curve" smooth="yes"/>
      <point x="331" y="872" type="line" smooth="yes"/>
      <point x="374" y="872"/>
      <point x="408" y="906"/>
      <point x="408" y="949" type="curve" smooth="yes"/>
      <point x="408" y="1137" type="line" smooth="yes"/>
      <point x="408" y="1180"/>
      <point x="374" y="1214"/>
      <point x="331" y="1214" type="curve" smooth="yes"/>
      <point x="118" y="1214" type="line" smooth="yes"/>
      <point x="75" y="1214"/>
      <point x="41" y="1180"/>
      <point x="41" y="1137" type="curve" smooth="yes"/>
      <point x="41" y="949" type="line" smooth="yes"/>
      <point x="41" y="906"/>
      <point x="75" y="872"/>
    </contour>
    <contour>
      <point x="224" y="1006" type="move" name="_top"/>
    </contour>
  </outline>
</glyph>
<glyph name="mu" format="1">
  <advance width="2039"/>
  <unicode hex="03BC"/>
  <outline>
    <contour>
      <point x="230" y="-299" type="curve" smooth="yes"/>
      <point x="578" y="-299" type="line" smooth="yes"/>
      <point x="621" y="-299"/>
      <point x="652" y="-267"/>
      <point x="652" y="-224" type="curve" smooth="yes"/>
      <point x="652" y="-12" type="line"/>
      <point x="719" y="-33"/>
      <point x="798" y="-42"/>
      <point x="876" y="-42" type="curve" smooth="yes"/>
      <point x="1113" y="-42"/>
      <point x="1350" y="38"/>
      <point x="1480" y="198" type="curve" smooth="yes"/>
      <point x="1486" y="205"/>
      <point x="1493" y="210"/>
      <point x="1501" y="210" type="curve" smooth="yes"/>
      <point x="1509" y="210"/>
      <point x="1517" y="205"/>
      <point x="1522" y="197" type="curve" smooth="yes"/>
      <point x="1602" y="64" type="line" smooth="yes"/>
      <point x="1625" y="24"/>
      <point x="1668" y="0"/>
      <point x="1715" y="0" type="curve" smooth="yes"/>
      <point x="1812" y="0" type="line" smooth="yes"/>
      <point x="1855" y="0"/>
      <point x="1886" y="34"/>
      <point x="1886" y="77" type="curve" smooth="yes"/>
      <point x="1886" y="941" type="line" smooth="yes"/>
      <point x="1886" y="984"/>
      <point x="1853" y="1016"/>
      <point x="1810" y="1016" type="curve" smooth="yes"/>
      <point x="1411" y="1016" type="line" smooth="yes"/>
      <point x="1368" y="1016"/>
      <point x="1336" y="984"/>
      <point x="1336" y="941" type="curve" smooth="yes"/>
      <point x="1336" y="499" type="line" smooth="yes"/>
      <point x="1336" y="366"/>
      <point x="1215" y="231"/>
      <point x="1019" y="231" type="curve" smooth="yes"/>
      <point x="832" y="231"/>
      <point x="728" y="354"/>
      <point x="728" y="499" type="curve" smooth="yes"/>
      <point x="728" y="941" type="line" smooth="yes"/>
      <point x="728" y="984"/>
      <point x="695" y="1016"/>
      <point x="652" y="1016" type="curve" smooth="yes"/>
      <point x="229" y="1016" type="line" smooth="yes"/>
      <point x="186" y="1016"/>
      <point x="154" y="984"/>
      <point x="154" y="941" type="curve" smooth="yes"/>
      <point x="154" y="-224" type="line" smooth="yes"/>
      <point x="154" y="-267"/>
      <point x="187" y="-299"/>
    </contour>
  </outline>
</glyph>
<glyph name="quotedblright" format="1">
  <advance width="1196"/>
  <unicode hex="201D"/>
  <outline>
    <contour>
      <point x="225" y="803" type="curve" smooth="yes"/>
      <point x="363" y="826"/>
      <point x="537" y="938"/>
      <point x="537" y="1175" type="curve" smooth="yes"/>
      <point x="537" y="1407" type="line" smooth="yes"/>
      <point x="537" y="1450"/>
      <point x="515" y="1484"/>
      <point x="472" y="1484" type="curve" smooth="yes"/>
      <point x="210" y="1484" type="line" smooth="yes"/>
      <point x="167" y="1484"/>
      <point x="150" y="1452"/>
      <point x="150" y="1409" type="curve" smooth="yes"/>
      <point x="150" y="1206" type="line" smooth="yes"/>
      <point x="150" y="1168"/>
      <point x="172" y="1139"/>
      <point x="210" y="1139" type="curve" smooth="yes"/>
      <point x="288" y="1139" type="line" smooth="yes"/>
      <point x="303" y="1139"/>
      <point x="305" y="1128"/>
      <point x="305" y="1112" type="curve" smooth="yes"/>
      <point x="305" y="1088"/>
      <point x="289" y="1011"/>
      <point x="220" y="968" type="curve" smooth="yes"/>
      <point x="177" y="941"/>
      <point x="150" y="947"/>
      <point x="150" y="893" type="curve" smooth="yes"/>
      <point x="150" y="848" type="line" smooth="yes"/>
      <point x="150" y="812"/>
      <point x="190" y="797"/>
    </contour>
    <contour>
      <point x="735" y="803" type="curve" smooth="yes"/>
      <point x="873" y="826"/>
      <point x="1048" y="938"/>
      <point x="1048" y="1175" type="curve" smooth="yes"/>
      <point x="1048" y="1407" type="line" smooth="yes"/>
      <point x="1048" y="1450"/>
      <point x="1026" y="1484"/>
      <point x="983" y="1484" type="curve" smooth="yes"/>
      <point x="721" y="1484" type="line" smooth="yes"/>
      <point x="678" y="1484"/>
      <point x="661" y="1452"/>
      <point x="661" y="1409" type="curve" smooth="yes"/>
      <point x="661" y="1206" type="line" smooth="yes"/>
      <point x="661" y="1168"/>
      <point x="683" y="1139"/>
      <point x="721" y="1139" type="curve" smooth="yes"/>
      <point x="798" y="1139" type="line" smooth="yes"/>
      <point x="813" y="1139"/>
      <point x="815" y="1128"/>
      <point x="815" y="1112" type="curve" smooth="yes"/>
      <point x="815" y="1088"/>
      <point x="799" y="1011"/>
      <point x="730" y="968" type="curve" smooth="yes"/>
      <point x="687" y="941"/>
      <point x="661" y="947"/>
      <point x="661" y="893" type="curve" smooth="yes"/>
      <point x="661" y="848" type="line" smooth="yes"/>
      <point x="661" y="812"/>
      <point x="700" y="797"/>
    </contour>
  </outline>
</glyph>
<glyph name="perthousand" format="1">
  <advance width="3542"/>
  <unicode hex="2030"/>
  <outline>
    <contour>
      <point x="810" y="-82" type="curve" smooth="yes"/>
      <point x="956" y="-82" type="line" smooth="yes"/>
      <point x="1002" y="-82"/>
      <point x="1045" y="-54"/>
      <point x="1064" y="-12" type="curve" smooth="yes"/>
      <point x="1718" y="1466" type="line" smooth="yes"/>
      <point x="1733" y="1499"/>
      <point x="1709" y="1536"/>
      <point x="1672" y="1536" type="curve" smooth="yes"/>
      <point x="1527" y="1536" type="line" smooth="yes"/>
      <point x="1481" y="1536"/>
      <point x="1437" y="1508"/>
      <point x="1419" y="1466" type="curve" smooth="yes"/>
      <point x="764" y="-12" type="line" smooth="yes"/>
      <point x="749" y="-45"/>
      <point x="773" y="-82"/>
    </contour>
    <contour>
      <point x="519" y="734" type="curve" smooth="yes"/>
      <point x="398" y="734"/>
      <point x="336" y="840"/>
      <point x="336" y="1024" type="curve" smooth="yes"/>
      <point x="336" y="1212"/>
      <point x="401" y="1323"/>
      <point x="519" y="1323" type="curve" smooth="yes"/>
      <point x="638" y="1323"/>
      <point x="702" y="1212"/>
      <point x="702" y="1024" type="curve" smooth="yes"/>
      <point x="702" y="840"/>
      <point x="641" y="734"/>
    </contour>
    <contour>
      <point x="519" y="560" type="curve" smooth="yes"/>
      <point x="816" y="560"/>
      <point x="967" y="793"/>
      <point x="967" y="1031" type="curve" smooth="yes"/>
      <point x="967" y="1267"/>
      <point x="820" y="1497"/>
      <point x="519" y="1497" type="curve" smooth="yes"/>
      <point x="218" y="1497"/>
      <point x="70" y="1267"/>
      <point x="70" y="1031" type="curve" smooth="yes"/>
      <point x="70" y="793"/>
      <point x="222" y="560"/>
    </contour>
    <contour>
      <point x="1979" y="134" type="curve" smooth="yes"/>
      <point x="1858" y="134"/>
      <point x="1796" y="241"/>
      <point x="1796" y="425" type="curve" smooth="yes"/>
      <point x="1796" y="613"/>
      <point x="1861" y="723"/>
      <point x="1979" y="723" type="curve" smooth="yes"/>
      <point x="2099" y="723"/>
      <point x="2162" y="613"/>
      <point x="2162" y="425" type="curve" smooth="yes"/>
      <point x="2162" y="241"/>
      <point x="2101" y="134"/>
    </contour>
    <contour>
      <point x="1979" y="-40" type="curve" smooth="yes"/>
      <point x="2276" y="-40"/>
      <point x="2428" y="194"/>
      <point x="2428" y="431" type="curve" smooth="yes"/>
      <point x="2428" y="667"/>
      <point x="2280" y="897"/>
      <point x="1979" y="897" type="curve" smooth="yes"/>
      <point x="1678" y="897"/>
      <point x="1530" y="667"/>
      <point x="1530" y="431" type="curve" smooth="yes"/>
      <point x="1530" y="194"/>
      <point x="1682" y="-40"/>
    </contour>
    <contour>
      <point x="3024" y="134" type="curve" smooth="yes"/>
      <point x="2903" y="134"/>
      <point x="2841" y="241"/>
      <point x="2841" y="425" type="curve" smooth="yes"/>
      <point x="2841" y="613"/>
      <point x="2906" y="723"/>
      <point x="3024" y="723" type="curve" smooth="yes"/>
      <point x="3144" y="723"/>
      <point x="3207" y="613"/>
      <point x="3207" y="425" type="curve" smooth="yes"/>
      <point x="3207" y="241"/>
      <point x="3146" y="134"/>
    </contour>
    <contour>
      <point x="3024" y="-40" type="curve" smooth="yes"/>
      <point x="3321" y="-40"/>
      <point x="3473" y="194"/>
      <point x="3473" y="431" type="curve" smooth="yes"/>
      <point x="3473" y="667"/>
      <point x="3325" y="897"/>
      <point x="3024" y="897" type="curve" smooth="yes"/>
      <point x="2723" y="897"/>
      <point x="2575" y="667"/>
      <point x="2575" y="431" type="curve" smooth="yes"/>
      <point x="2575" y="194"/>
      <point x="2727" y="-40"/>
    </contour>
  </outline>
</glyph>
<glyph name="guilsinglright" format="1">
  <advance width="753"/>
  <unicode hex="203A"/>
  <outline>
    <contour>
      <point x="138" y="29" type="curve" smooth="yes"/>
      <point x="153" y="29"/>
      <point x="173" y="36"/>
      <point x="196" y="49" type="curve" smooth="yes"/>
      <point x="579" y="297" type="line"/>
      <point x="649" y="344"/>
      <point x="675" y="394"/>
      <point x="675" y="459" type="curve" smooth="yes"/>
      <point x="675" y="613" type="line" smooth="yes"/>
      <point x="675" y="677"/>
      <point x="649" y="716"/>
      <point x="579" y="763" type="curve"/>
      <point x="196" y="1016" type="line" smooth="yes"/>
      <point x="173" y="1031"/>
      <point x="153" y="1036"/>
      <point x="138" y="1036" type="curve" smooth="yes"/>
      <point x="100" y="1036"/>
      <point x="82" y="1006"/>
      <point x="82" y="986" type="curve" smooth="yes"/>
      <point x="82" y="883" type="line" smooth="yes"/>
      <point x="82" y="820"/>
      <point x="90" y="794"/>
      <point x="142" y="743" type="curve"/>
      <point x="391" y="564" type="line"/>
      <point x="403" y="553"/>
      <point x="408" y="545"/>
      <point x="408" y="530" type="curve" smooth="yes"/>
      <point x="408" y="515"/>
      <point x="404" y="509"/>
      <point x="391" y="497" type="curve"/>
      <point x="142" y="320" type="line"/>
      <point x="89" y="268"/>
      <point x="82" y="241"/>
      <point x="82" y="177" type="curve" smooth="yes"/>
      <point x="82" y="79" type="line" smooth="yes"/>
      <point x="82" y="60"/>
      <point x="100" y="29"/>
    </contour>
  </outline>
</glyph>
<glyph name="minus" format="1">
  <advance width="1297"/>
  <unicode hex="2212"/>
  <outline>
    <contour>
      <point x="205" y="504" type="curve" smooth="yes"/>
      <point x="1090" y="504" type="line" smooth="yes"/>
      <point x="1133" y="504"/>
      <point x="1166" y="536"/>
      <point x="1166" y="579" type="curve" smooth="yes"/>
      <point x="1166" y="715" type="line" smooth="yes"/>
      <point x="1166" y="758"/>
      <point x="1133" y="791"/>
      <point x="1090" y="791" type="curve" smooth="yes"/>
      <point x="205" y="791" type="line" smooth="yes"/>
      <point x="162" y="791"/>
      <point x="130" y="758"/>
      <point x="130" y="715" type="curve" smooth="yes"/>
      <point x="130" y="579" type="line" smooth="yes"/>
      <point x="130" y="536"/>
      <point x="162" y="504"/>
    </contour>
  </outline>
</glyph>
